<svg width="1589" height="1478" viewBox="0 0 1589 1478" fill="none" xmlns="http://www.w3.org/2000/svg">
<rect width="1589" height="1478" rx="168" fill="#606060"/>
<g filter="url(#filter0_i_15_9)">
<path fill-rule="evenodd" clip-rule="evenodd" d="M1123.31 774.872C1053.08 714.767 957.824 681 858.5 681L858.5 768C929.445 768 997.485 792.601 1047.65 836.391C1097.82 880.18 1126 939.572 1126 1001.5C1126 1063.43 1097.82 1122.82 1047.65 1166.61C997.485 1210.4 929.445 1235 858.5 1235V1322C957.824 1322 1053.08 1288.23 1123.31 1228.13C1193.54 1168.02 1233 1086.5 1233 1001.5C1233 916.498 1193.54 834.978 1123.31 774.872Z" fill="#F3C957"/>
<path fill-rule="evenodd" clip-rule="evenodd" d="M578.175 672.128C646.157 732.233 738.36 766 834.501 766V679C765.829 679 699.969 654.399 651.411 610.609C602.852 566.82 575.572 507.428 575.572 445.5C575.572 383.572 602.852 324.18 651.411 280.391C699.969 236.601 765.829 212 834.501 212V125C738.36 125 646.157 158.767 578.175 218.872C510.193 278.978 472.001 360.498 472.001 445.5C472.001 530.502 510.193 612.022 578.175 672.128Z" fill="#F3C957"/>
<path d="M507.825 1233H837.001V1320L474.001 1319L507.825 1233Z" fill="#F3C957"/>
<path d="M834 679L874.5 681.5L859 768L831.5 766L834 679Z" fill="#F3C957"/>
<path d="M858.5 1322L817.834 1319.82L829.5 1232.5L915.5 1233.22L858.5 1322Z" fill="#F3C957"/>
<path d="M1201.05 212L832 212V125L1233 126L1201.05 212Z" fill="#F3C957"/>
<path d="M920.096 194.155L1003.81 193.554L564.77 1318.57L472 1320.04L920.096 194.155Z" fill="#F3C957"/>
<path d="M1152 125.996L1235.55 124.979L1136.05 380.441L1053.18 381.462L1152 125.996Z" fill="#F3C957"/>
</g>
<defs>
<filter id="filter0_i_15_9" x="472" y="124.979" width="763.546" height="1197.02" filterUnits="userSpaceOnUse" color-interpolation-filters="sRGB">
<feFlood flood-opacity="0" result="BackgroundImageFix"/>
<feBlend mode="normal" in="SourceGraphic" in2="BackgroundImageFix" result="shape"/>
<feColorMatrix in="SourceAlpha" type="matrix" values="0 0 0 0 0 0 0 0 0 0 0 0 0 0 0 0 0 0 127 0" result="hardAlpha"/>
<feOffset dx="-7"/>
<feComposite in2="hardAlpha" operator="arithmetic" k2="-1" k3="1"/>
<feColorMatrix type="matrix" values="0 0 0 0 0 0 0 0 0 0 0 0 0 0 0 0 0 0 1 0"/>
<feBlend mode="normal" in2="shape" result="effect1_innerShadow_15_9"/>
</filter>
</defs>
</svg>
